<mxfile host="app.diagrams.net" agent="Mozilla/5.0 (Macintosh; Intel Mac OS X 10_15_7) AppleWebKit/537.36 (KHTML, like Gecko) Chrome/141.0.0.0 Safari/537.36" version="27.2.0">
  <diagram name="Page-1" id="LxsQBpPoihg6pK0Tb-Sb">
    <mxGraphModel dx="4883" dy="2577" grid="1" gridSize="10" guides="1" tooltips="1" connect="1" arrows="1" fold="1" page="1" pageScale="1" pageWidth="850" pageHeight="1100" math="0" shadow="0">
      <root>
        <mxCell id="0" />
        <mxCell id="1" parent="0" />
        <mxCell id="7VgrjG7mCo8uP4TWP6Bt-2" value="STORAGE_SYSTEM" style="shape=table;startSize=84;container=1;collapsible=0;childLayout=tableLayout;fixedRows=1;rowLines=1;fontStyle=1;align=center;resizeLast=1;" vertex="1" parent="1">
          <mxGeometry x="762" y="20" width="167" height="84" as="geometry" />
        </mxCell>
        <mxCell id="7VgrjG7mCo8uP4TWP6Bt-3" value="POOL" style="shape=table;startSize=84;container=1;collapsible=0;childLayout=tableLayout;fixedRows=1;rowLines=1;fontStyle=1;align=center;resizeLast=1;" vertex="1" parent="1">
          <mxGeometry x="20" y="411" width="100" height="84" as="geometry" />
        </mxCell>
        <mxCell id="7VgrjG7mCo8uP4TWP6Bt-4" value="PARITY_GROUP" style="shape=table;startSize=84;container=1;collapsible=0;childLayout=tableLayout;fixedRows=1;rowLines=1;fontStyle=1;align=center;resizeLast=1;" vertex="1" parent="1">
          <mxGeometry x="580" y="411" width="147" height="84" as="geometry" />
        </mxCell>
        <mxCell id="7VgrjG7mCo8uP4TWP6Bt-5" value="VOLUME" style="shape=table;startSize=84;container=1;collapsible=0;childLayout=tableLayout;fixedRows=1;rowLines=1;fontStyle=1;align=center;resizeLast=1;" vertex="1" parent="1">
          <mxGeometry x="452" y="615" width="99" height="84" as="geometry" />
        </mxCell>
        <mxCell id="7VgrjG7mCo8uP4TWP6Bt-6" value="PORT" style="shape=table;startSize=84;container=1;collapsible=0;childLayout=tableLayout;fixedRows=1;rowLines=1;fontStyle=1;align=center;resizeLast=1;" vertex="1" parent="1">
          <mxGeometry x="937" y="224" width="100" height="84" as="geometry" />
        </mxCell>
        <mxCell id="7VgrjG7mCo8uP4TWP6Bt-7" value="HOST_GROUP" style="shape=table;startSize=84;container=1;collapsible=0;childLayout=tableLayout;fixedRows=1;rowLines=1;fontStyle=1;align=center;resizeLast=1;" vertex="1" parent="1">
          <mxGeometry x="918" y="411" width="137" height="84" as="geometry" />
        </mxCell>
        <mxCell id="7VgrjG7mCo8uP4TWP6Bt-8" value="INITIATOR" style="shape=table;startSize=84;container=1;collapsible=0;childLayout=tableLayout;fixedRows=1;rowLines=1;fontStyle=1;align=center;resizeLast=1;" vertex="1" parent="1">
          <mxGeometry x="1034" y="615" width="109" height="84" as="geometry" />
        </mxCell>
        <mxCell id="7VgrjG7mCo8uP4TWP6Bt-9" value="SERVER" style="shape=table;startSize=84;container=1;collapsible=0;childLayout=tableLayout;fixedRows=1;rowLines=1;fontStyle=1;align=center;resizeLast=1;" vertex="1" parent="1">
          <mxGeometry x="300" y="224" width="100" height="84" as="geometry" />
        </mxCell>
        <mxCell id="7VgrjG7mCo8uP4TWP6Bt-10" value="ATTACHED_VOLUME" style="shape=table;startSize=84;container=1;collapsible=0;childLayout=tableLayout;fixedRows=1;rowLines=1;fontStyle=1;align=center;resizeLast=1;" vertex="1" parent="1">
          <mxGeometry x="260" y="411" width="180" height="84" as="geometry" />
        </mxCell>
        <mxCell id="7VgrjG7mCo8uP4TWP6Bt-11" value="VSM" style="shape=table;startSize=84;container=1;collapsible=0;childLayout=tableLayout;fixedRows=1;rowLines=1;fontStyle=1;align=center;resizeLast=1;" vertex="1" parent="1">
          <mxGeometry x="1177" y="224" width="100" height="84" as="geometry" />
        </mxCell>
        <mxCell id="7VgrjG7mCo8uP4TWP6Bt-12" value="has" style="curved=1;startArrow=ERmandOne;startSize=10;;endArrow=ERzeroToMany;endSize=10;;exitX=0;exitY=0.63;entryX=0.5;entryY=0;rounded=0;" edge="1" parent="1" source="7VgrjG7mCo8uP4TWP6Bt-2" target="7VgrjG7mCo8uP4TWP6Bt-3">
          <mxGeometry relative="1" as="geometry">
            <Array as="points">
              <mxPoint x="70" y="164" />
            </Array>
          </mxGeometry>
        </mxCell>
        <mxCell id="7VgrjG7mCo8uP4TWP6Bt-13" value="has" style="curved=1;startArrow=ERmandOne;startSize=10;;endArrow=ERzeroToMany;endSize=10;;exitX=0.03;exitY=1;entryX=0.5;entryY=0;rounded=0;" edge="1" parent="1" source="7VgrjG7mCo8uP4TWP6Bt-2" target="7VgrjG7mCo8uP4TWP6Bt-4">
          <mxGeometry relative="1" as="geometry">
            <Array as="points">
              <mxPoint x="653" y="164" />
            </Array>
          </mxGeometry>
        </mxCell>
        <mxCell id="7VgrjG7mCo8uP4TWP6Bt-14" value="allocates (LDEV/Volume)" style="curved=1;startArrow=ERmandOne;startSize=10;;endArrow=ERzeroToMany;endSize=10;;exitX=0.5;exitY=1;entryX=0;entryY=0.36;rounded=0;" edge="1" parent="1" source="7VgrjG7mCo8uP4TWP6Bt-3" target="7VgrjG7mCo8uP4TWP6Bt-5">
          <mxGeometry relative="1" as="geometry">
            <Array as="points">
              <mxPoint x="70" y="555" />
            </Array>
          </mxGeometry>
        </mxCell>
        <mxCell id="7VgrjG7mCo8uP4TWP6Bt-15" value="contains (if non-thin)" style="curved=1;startArrow=ERmandOne;startSize=10;;endArrow=ERzeroToMany;endSize=10;;exitX=0.5;exitY=1;entryX=1;entryY=0.1;rounded=0;" edge="1" parent="1" source="7VgrjG7mCo8uP4TWP6Bt-4" target="7VgrjG7mCo8uP4TWP6Bt-5">
          <mxGeometry relative="1" as="geometry">
            <Array as="points">
              <mxPoint x="653" y="555" />
            </Array>
          </mxGeometry>
        </mxCell>
        <mxCell id="7VgrjG7mCo8uP4TWP6Bt-16" value="has" style="curved=1;startArrow=ERmandOne;startSize=10;;endArrow=ERzeroToMany;endSize=10;;exitX=0.85;exitY=1;entryX=0.5;entryY=0;rounded=0;" edge="1" parent="1" source="7VgrjG7mCo8uP4TWP6Bt-2" target="7VgrjG7mCo8uP4TWP6Bt-6">
          <mxGeometry relative="1" as="geometry">
            <Array as="points">
              <mxPoint x="987" y="164" />
            </Array>
          </mxGeometry>
        </mxCell>
        <mxCell id="7VgrjG7mCo8uP4TWP6Bt-17" value="hosts (HG / iSCSI Target)" style="curved=1;startArrow=ERmandOne;startSize=10;;endArrow=ERzeroToMany;endSize=10;;exitX=0.5;exitY=1;entryX=0.5;entryY=0;rounded=0;" edge="1" parent="1" source="7VgrjG7mCo8uP4TWP6Bt-6" target="7VgrjG7mCo8uP4TWP6Bt-7">
          <mxGeometry relative="1" as="geometry">
            <Array as="points" />
          </mxGeometry>
        </mxCell>
        <mxCell id="7VgrjG7mCo8uP4TWP6Bt-18" value="presents_as (via LUN / LU-Path)" style="curved=1;startArrow=ERzeroToMany;startSize=10;;endArrow=ERzeroToMany;endSize=10;;exitX=0.2;exitY=1;entryX=1;entryY=0.34;rounded=0;" edge="1" parent="1" source="7VgrjG7mCo8uP4TWP6Bt-7" target="7VgrjG7mCo8uP4TWP6Bt-5">
          <mxGeometry relative="1" as="geometry">
            <Array as="points">
              <mxPoint x="885" y="555" />
            </Array>
          </mxGeometry>
        </mxCell>
        <mxCell id="7VgrjG7mCo8uP4TWP6Bt-19" value="includes (WWPN / iSCSI IQN / NVMe NQN)" style="curved=1;startArrow=ERmandOne;startSize=10;;endArrow=ERzeroToMany;endSize=10;;exitX=0.81;exitY=1;entryX=0.5;entryY=0;rounded=0;" edge="1" parent="1" source="7VgrjG7mCo8uP4TWP6Bt-7" target="7VgrjG7mCo8uP4TWP6Bt-8">
          <mxGeometry relative="1" as="geometry">
            <Array as="points">
              <mxPoint x="1089" y="555" />
            </Array>
          </mxGeometry>
        </mxCell>
        <mxCell id="7VgrjG7mCo8uP4TWP6Bt-20" value="sees (per-path on server)" style="curved=1;startArrow=ERmandOne;startSize=10;;endArrow=ERzeroToMany;endSize=10;;exitX=0.5;exitY=1;entryX=0.5;entryY=0;rounded=0;" edge="1" parent="1" source="7VgrjG7mCo8uP4TWP6Bt-9" target="7VgrjG7mCo8uP4TWP6Bt-10">
          <mxGeometry relative="1" as="geometry">
            <Array as="points" />
          </mxGeometry>
        </mxCell>
        <mxCell id="7VgrjG7mCo8uP4TWP6Bt-21" value="is" style="curved=1;startArrow=ERzeroToMany;startSize=10;;endArrow=ERmandOne;endSize=10;;exitX=0.5;exitY=1;entryX=0;entryY=0.1;rounded=0;" edge="1" parent="1" source="7VgrjG7mCo8uP4TWP6Bt-10" target="7VgrjG7mCo8uP4TWP6Bt-5">
          <mxGeometry relative="1" as="geometry">
            <Array as="points">
              <mxPoint x="350" y="555" />
            </Array>
          </mxGeometry>
        </mxCell>
        <mxCell id="7VgrjG7mCo8uP4TWP6Bt-22" value="may host (Virtual Storage Machine)" style="curved=1;startArrow=ERmandOne;startSize=10;;endArrow=ERzeroToMany;endSize=10;;exitX=1;exitY=0.77;entryX=0.5;entryY=0;rounded=0;" edge="1" parent="1" source="7VgrjG7mCo8uP4TWP6Bt-2" target="7VgrjG7mCo8uP4TWP6Bt-11">
          <mxGeometry relative="1" as="geometry">
            <Array as="points">
              <mxPoint x="1227" y="164" />
            </Array>
          </mxGeometry>
        </mxCell>
        <mxCell id="7VgrjG7mCo8uP4TWP6Bt-23" value="Hitachi Ops Center — Entities &amp; Calls" style="whiteSpace=wrap;strokeWidth=2;verticalAlign=top;" vertex="1" parent="1">
          <mxGeometry x="-410" y="750" width="2192" height="1685" as="geometry" />
        </mxCell>
        <mxCell id="7VgrjG7mCo8uP4TWP6Bt-24" value="SERVER&#xa;      — Admin:&#xa;        GET /v1/compute/servers&#xa;        GET /v1/compute/servers/{serverId}" style="whiteSpace=wrap;strokeWidth=2;" vertex="1" parent="7VgrjG7mCo8uP4TWP6Bt-23">
          <mxGeometry x="502" y="115" width="292" height="150" as="geometry" />
        </mxCell>
        <mxCell id="7VgrjG7mCo8uP4TWP6Bt-25" value="Server perspective" style="whiteSpace=wrap;strokeWidth=2;" vertex="1" parent="7VgrjG7mCo8uP4TWP6Bt-23">
          <mxGeometry x="464" y="28" width="832" height="292" as="geometry" />
        </mxCell>
        <mxCell id="7VgrjG7mCo8uP4TWP6Bt-26" value="STORAGE_SYSTEM (Array)&#xa;    — Admin API:&#xa;      GET /v1/storage-systems&#xa;      GET /v1/storage-systems/{sid}&#xa;    — CMREST (optional, per-array search):&#xa;      Search: storageSystem" style="whiteSpace=wrap;strokeWidth=2;" vertex="1" parent="7VgrjG7mCo8uP4TWP6Bt-23">
          <mxGeometry x="46" y="999" width="260" height="222" as="geometry" />
        </mxCell>
        <mxCell id="7VgrjG7mCo8uP4TWP6Bt-27" value="POOL&#xa;    — Admin:&#xa;      GET /v1/storage-systems/{sid}/pools&#xa;    — CMREST:&#xa;      Search: pool" style="whiteSpace=wrap;strokeWidth=2;" vertex="1" parent="7VgrjG7mCo8uP4TWP6Bt-23">
          <mxGeometry x="982" y="891" width="260" height="174" as="geometry" />
        </mxCell>
        <mxCell id="7VgrjG7mCo8uP4TWP6Bt-28" value="PARITY_GROUP&#xa;    — Admin:&#xa;      GET /v1/storage-systems/{sid}/parity-groups&#xa;    — CMREST:&#xa;      Search: parityGroup" style="whiteSpace=wrap;strokeWidth=2;" vertex="1" parent="7VgrjG7mCo8uP4TWP6Bt-23">
          <mxGeometry x="982" y="1115" width="260" height="174" as="geometry" />
        </mxCell>
        <mxCell id="7VgrjG7mCo8uP4TWP6Bt-29" value="VOLUME (LDEV)&#xa;    — Admin:&#xa;      GET /v1/storage-systems/{sid}/volumes&#xa;      (records include hostGroupNames, portIds, numberOfLunPaths, etc.)&#xa;    — CMREST:&#xa;      Search: ldev, virtualLdev" style="whiteSpace=wrap;strokeWidth=2;" vertex="1" parent="7VgrjG7mCo8uP4TWP6Bt-23">
          <mxGeometry x="1568" y="795" width="260" height="246" as="geometry" />
        </mxCell>
        <mxCell id="7VgrjG7mCo8uP4TWP6Bt-30" value="PORT&#xa;    — Admin:&#xa;      GET /v1/storage-systems/{sid}/storage-ports&#xa;    — CMREST:&#xa;      Search: port" style="whiteSpace=wrap;strokeWidth=2;" vertex="1" parent="7VgrjG7mCo8uP4TWP6Bt-23">
          <mxGeometry x="518" y="1371" width="260" height="174" as="geometry" />
        </mxCell>
        <mxCell id="7VgrjG7mCo8uP4TWP6Bt-31" value="HOST_GROUP (HG / iSCSI Target)&#xa;    — Admin:&#xa;      GET /v1/storage-systems/{sid}/host-groups&#xa;    — CMREST:&#xa;      Search: hostGroup" style="whiteSpace=wrap;strokeWidth=2;" vertex="1" parent="7VgrjG7mCo8uP4TWP6Bt-23">
          <mxGeometry x="982" y="1359" width="260" height="198" as="geometry" />
        </mxCell>
        <mxCell id="7VgrjG7mCo8uP4TWP6Bt-32" value="LUN / LU-PATH (JOIN)&#xa;    — Admin (edit/list via payloads):&#xa;      POST /v1/volume-manager/edit-lun-paths&#xa;      (use GETs above to enumerate paths per volume/host-group)&#xa;    — CMREST (granular lookups):&#xa;      Search: lun&#xa;      LU-Path detail endpoints (per-array)" style="whiteSpace=wrap;strokeWidth=2;" vertex="1" parent="7VgrjG7mCo8uP4TWP6Bt-23">
          <mxGeometry x="1903" y="425" width="260" height="342" as="geometry" />
        </mxCell>
        <mxCell id="7VgrjG7mCo8uP4TWP6Bt-33" value="INITIATOR (WWPN / iSCSI IQN / NVMe NQN)&#xa;    — CMREST:&#xa;      Search: wwn, iscsi&#xa;      Registered: hostWwn, hostIscsi (initiators ↔ host groups)" style="whiteSpace=wrap;strokeWidth=2;" vertex="1" parent="7VgrjG7mCo8uP4TWP6Bt-23">
          <mxGeometry x="1568" y="1454" width="260" height="198" as="geometry" />
        </mxCell>
        <mxCell id="7VgrjG7mCo8uP4TWP6Bt-34" value="ATTACHED_VOLUME (Server ↔ Volume paths)&#xa;      — Admin:&#xa;        GET /v1/compute/servers/attached-volumes/?q=serverId:{serverId}&#xa;        (filter by storageSystemId if desired)" style="whiteSpace=wrap;strokeWidth=2;" vertex="1" parent="7VgrjG7mCo8uP4TWP6Bt-23">
          <mxGeometry x="966" y="63" width="293" height="222" as="geometry" />
        </mxCell>
        <mxCell id="7VgrjG7mCo8uP4TWP6Bt-35" value="📌 Start here (server view):&#xa;    1) GET /v1/compute/servers (find {serverId})&#xa;    2) GET /v1/compute/servers/attached-volumes/?q=serverId:{serverId}&#xa;       → gives: volumeId, storageSystemId, storagePortId, hostGroupId, LUN&#xa;    3) For each (sid, volumeId):&#xa;       GET /v1/storage-systems/{sid}/volumes&#xa;       GET /v1/storage-systems/{sid}/host-groups&#xa;       GET /v1/storage-systems/{sid}/storage-ports&#xa;       (Optionally CMREST Search: lun / hostGroup / port for raw LU-paths)" style="whiteSpace=wrap;strokeWidth=2;" vertex="1" parent="7VgrjG7mCo8uP4TWP6Bt-23">
          <mxGeometry x="966" y="355" width="293" height="486" as="geometry" />
        </mxCell>
        <mxCell id="7VgrjG7mCo8uP4TWP6Bt-36" value="📌 From an array view:&#xa;    1) GET /v1/storage-systems/{sid}&#xa;    2) GET /v1/storage-systems/{sid}/volumes&#xa;    3) GET /v1/storage-systems/{sid}/host-groups&#xa;    4) GET /v1/storage-systems/{sid}/storage-ports&#xa;    5) CMREST Search:&#xa;       pool, parityGroup, ldev, lun,&#xa;       hostGroup, port, wwn, iscsi" style="whiteSpace=wrap;strokeWidth=2;" vertex="1" parent="7VgrjG7mCo8uP4TWP6Bt-23">
          <mxGeometry x="1903" y="1275" width="260" height="342" as="geometry" />
        </mxCell>
        <mxCell id="7VgrjG7mCo8uP4TWP6Bt-37" value="1..N has →" style="curved=1;startArrow=none;endArrow=block;exitX=1;exitY=0.13;entryX=0;entryY=0.5;rounded=0;" edge="1" parent="7VgrjG7mCo8uP4TWP6Bt-23" source="7VgrjG7mCo8uP4TWP6Bt-26" target="7VgrjG7mCo8uP4TWP6Bt-27">
          <mxGeometry relative="1" as="geometry">
            <Array as="points">
              <mxPoint x="385" y="978" />
            </Array>
          </mxGeometry>
        </mxCell>
        <mxCell id="7VgrjG7mCo8uP4TWP6Bt-38" value="1..N has →" style="curved=1;startArrow=none;endArrow=block;exitX=1;exitY=0.76;entryX=0;entryY=0.5;rounded=0;" edge="1" parent="7VgrjG7mCo8uP4TWP6Bt-23" source="7VgrjG7mCo8uP4TWP6Bt-26" target="7VgrjG7mCo8uP4TWP6Bt-28">
          <mxGeometry relative="1" as="geometry">
            <Array as="points">
              <mxPoint x="385" y="1202" />
            </Array>
          </mxGeometry>
        </mxCell>
        <mxCell id="7VgrjG7mCo8uP4TWP6Bt-39" value="1..N allocates →" style="curved=1;startArrow=none;endArrow=block;exitX=1;exitY=0.5;entryX=0;entryY=0.62;rounded=0;" edge="1" parent="7VgrjG7mCo8uP4TWP6Bt-23" source="7VgrjG7mCo8uP4TWP6Bt-27" target="7VgrjG7mCo8uP4TWP6Bt-29">
          <mxGeometry relative="1" as="geometry">
            <Array as="points">
              <mxPoint x="1432" y="978" />
            </Array>
          </mxGeometry>
        </mxCell>
        <mxCell id="7VgrjG7mCo8uP4TWP6Bt-40" value="1..N contains →" style="curved=1;startArrow=none;endArrow=block;exitX=1;exitY=0.5;entryX=0.06;entryY=1;rounded=0;" edge="1" parent="7VgrjG7mCo8uP4TWP6Bt-23" source="7VgrjG7mCo8uP4TWP6Bt-28" target="7VgrjG7mCo8uP4TWP6Bt-29">
          <mxGeometry relative="1" as="geometry">
            <Array as="points">
              <mxPoint x="1432" y="1202" />
            </Array>
          </mxGeometry>
        </mxCell>
        <mxCell id="7VgrjG7mCo8uP4TWP6Bt-41" value="1..N has →" style="curved=1;startArrow=none;endArrow=block;exitX=0.75;exitY=1;entryX=0;entryY=0.5;rounded=0;" edge="1" parent="7VgrjG7mCo8uP4TWP6Bt-23" source="7VgrjG7mCo8uP4TWP6Bt-26" target="7VgrjG7mCo8uP4TWP6Bt-30">
          <mxGeometry relative="1" as="geometry">
            <Array as="points">
              <mxPoint x="385" y="1458" />
            </Array>
          </mxGeometry>
        </mxCell>
        <mxCell id="7VgrjG7mCo8uP4TWP6Bt-42" value="1..N hosts →" style="curved=1;startArrow=none;endArrow=block;exitX=1;exitY=0.5;entryX=0;entryY=0.5;rounded=0;" edge="1" parent="7VgrjG7mCo8uP4TWP6Bt-23" source="7VgrjG7mCo8uP4TWP6Bt-30" target="7VgrjG7mCo8uP4TWP6Bt-31">
          <mxGeometry relative="1" as="geometry">
            <Array as="points" />
          </mxGeometry>
        </mxCell>
        <mxCell id="7VgrjG7mCo8uP4TWP6Bt-43" value="M..N presents_as (via LUN) →" style="curved=1;startArrow=none;endArrow=block;exitX=1;exitY=0.1;entryX=0.2;entryY=1;rounded=0;" edge="1" parent="7VgrjG7mCo8uP4TWP6Bt-23" source="7VgrjG7mCo8uP4TWP6Bt-31" target="7VgrjG7mCo8uP4TWP6Bt-29">
          <mxGeometry relative="1" as="geometry">
            <Array as="points">
              <mxPoint x="1296" y="1346" />
              <mxPoint x="1432" y="1346" />
            </Array>
          </mxGeometry>
        </mxCell>
        <mxCell id="7VgrjG7mCo8uP4TWP6Bt-44" value="" style="curved=1;startArrow=none;endArrow=none;exitX=1;exitY=0.36;entryX=0.36;entryY=1;rounded=0;" edge="1" parent="7VgrjG7mCo8uP4TWP6Bt-23" source="7VgrjG7mCo8uP4TWP6Bt-31" target="7VgrjG7mCo8uP4TWP6Bt-32">
          <mxGeometry relative="1" as="geometry">
            <Array as="points">
              <mxPoint x="1296" y="1419" />
              <mxPoint x="1865" y="1419" />
            </Array>
          </mxGeometry>
        </mxCell>
        <mxCell id="7VgrjG7mCo8uP4TWP6Bt-45" value="" style="curved=1;startArrow=none;endArrow=none;exitX=0.61;exitY=0;entryX=0.21;entryY=0;rounded=0;" edge="1" parent="7VgrjG7mCo8uP4TWP6Bt-23" source="7VgrjG7mCo8uP4TWP6Bt-29" target="7VgrjG7mCo8uP4TWP6Bt-32">
          <mxGeometry relative="1" as="geometry">
            <Array as="points">
              <mxPoint x="1865" y="214" />
            </Array>
          </mxGeometry>
        </mxCell>
        <mxCell id="7VgrjG7mCo8uP4TWP6Bt-46" value="1..N includes →" style="curved=1;startArrow=none;endArrow=block;exitX=1;exitY=0.84;entryX=0;entryY=0.5;rounded=0;" edge="1" parent="7VgrjG7mCo8uP4TWP6Bt-23" source="7VgrjG7mCo8uP4TWP6Bt-31" target="7VgrjG7mCo8uP4TWP6Bt-33">
          <mxGeometry relative="1" as="geometry">
            <Array as="points">
              <mxPoint x="1296" y="1553" />
            </Array>
          </mxGeometry>
        </mxCell>
        <mxCell id="7VgrjG7mCo8uP4TWP6Bt-47" value="1..N sees →" style="curved=1;startArrow=none;endArrow=block;exitX=1;exitY=0.43;entryX=0;entryY=0.5;rounded=0;" edge="1" parent="7VgrjG7mCo8uP4TWP6Bt-23" source="7VgrjG7mCo8uP4TWP6Bt-24" target="7VgrjG7mCo8uP4TWP6Bt-34">
          <mxGeometry relative="1" as="geometry">
            <Array as="points">
              <mxPoint x="880" y="174" />
            </Array>
          </mxGeometry>
        </mxCell>
        <mxCell id="7VgrjG7mCo8uP4TWP6Bt-48" value="N..1 is →" style="curved=1;startArrow=none;endArrow=block;exitX=1;exitY=0.5;entryX=0.33;entryY=0;rounded=0;" edge="1" parent="7VgrjG7mCo8uP4TWP6Bt-23" source="7VgrjG7mCo8uP4TWP6Bt-34" target="7VgrjG7mCo8uP4TWP6Bt-29">
          <mxGeometry relative="1" as="geometry">
            <Array as="points">
              <mxPoint x="1432" y="174" />
            </Array>
          </mxGeometry>
        </mxCell>
        <mxCell id="7VgrjG7mCo8uP4TWP6Bt-49" value="" style="curved=1;dashed=1;dashPattern=2 3;startArrow=none;endArrow=block;exitX=1;exitY=0.76;entryX=0;entryY=0.05;rounded=0;" edge="1" parent="7VgrjG7mCo8uP4TWP6Bt-23" source="7VgrjG7mCo8uP4TWP6Bt-24" target="7VgrjG7mCo8uP4TWP6Bt-35">
          <mxGeometry relative="1" as="geometry">
            <Array as="points">
              <mxPoint x="880" y="253" />
            </Array>
          </mxGeometry>
        </mxCell>
        <mxCell id="7VgrjG7mCo8uP4TWP6Bt-50" value="" style="curved=1;dashed=1;dashPattern=2 3;startArrow=none;endArrow=block;exitX=0.69;exitY=1;entryX=0;entryY=0.24;rounded=0;" edge="1" parent="7VgrjG7mCo8uP4TWP6Bt-23" source="7VgrjG7mCo8uP4TWP6Bt-29" target="7VgrjG7mCo8uP4TWP6Bt-36">
          <mxGeometry relative="1" as="geometry">
            <Array as="points">
              <mxPoint x="1865" y="1330" />
            </Array>
          </mxGeometry>
        </mxCell>
      </root>
    </mxGraphModel>
  </diagram>
</mxfile>
